<svg width="775" height="178" viewBox="0 0 775 178" xmlns="http://www.w3.org/2000/svg">
  <rect width="775" height="178" rx="8" fill="#181825"/>
  <rect width="775" height="178" rx="8" fill="none" stroke="#313244"/>
  <text x="25" y="24" font-family="'Segoe UI',Ubuntu,sans-serif" font-size="16" font-weight="700" fill="#cdd6f4">&#128293; Contribution Calendar (last year)</text>
  <text x="25" y="36" font-family="'Segoe UI',Ubuntu,sans-serif" font-size="11" fill="#a6adc8">Sep</text>
  <text x="95" y="36" font-family="'Segoe UI',Ubuntu,sans-serif" font-size="11" fill="#a6adc8">Nov</text>
  <text x="165" y="36" font-family="'Segoe UI',Ubuntu,sans-serif" font-size="11" fill="#a6adc8">Dec</text>
  <text x="221" y="36" font-family="'Segoe UI',Ubuntu,sans-serif" font-size="11" fill="#a6adc8">Jan</text>
  <text x="277" y="36" font-family="'Segoe UI',Ubuntu,sans-serif" font-size="11" fill="#a6adc8">Feb</text>
  <text x="333" y="36" font-family="'Segoe UI',Ubuntu,sans-serif" font-size="11" fill="#a6adc8">Mar</text>
  <text x="403" y="36" font-family="'Segoe UI',Ubuntu,sans-serif" font-size="11" fill="#a6adc8">Apr</text>
  <text x="459" y="36" font-family="'Segoe UI',Ubuntu,sans-serif" font-size="11" fill="#a6adc8">May</text>
  <text x="529" y="36" font-family="'Segoe UI',Ubuntu,sans-serif" font-size="11" fill="#a6adc8">Jun</text>
  <text x="585" y="36" font-family="'Segoe UI',Ubuntu,sans-serif" font-size="11" fill="#a6adc8">Jul</text>
  <text x="641" y="36" font-family="'Segoe UI',Ubuntu,sans-serif" font-size="11" fill="#a6adc8">Aug</text>
  <text x="711" y="36" font-family="'Segoe UI',Ubuntu,sans-serif" font-size="11" fill="#a6adc8">Sep</text>
  <rect x="25" y="48" width="11" height="11" rx="2.5" fill="#1e1e2e"/>
  <rect x="25" y="62" width="11" height="11" rx="2.5" fill="#1e1e2e"/>
  <rect x="25" y="76" width="11" height="11" rx="2.5" fill="#1e1e2e"/>
  <rect x="25" y="90" width="11" height="11" rx="2.5" fill="#1e1e2e"/>
  <rect x="25" y="104" width="11" height="11" rx="2.5" fill="#1e1e2e"/>
  <rect x="25" y="118" width="11" height="11" rx="2.5" fill="#1e1e2e"/>
  <rect x="25" y="132" width="11" height="11" rx="2.5" fill="#1e1e2e"/>
  <rect x="39" y="48" width="11" height="11" rx="2.5" fill="#1e1e2e"/>
  <rect x="39" y="62" width="11" height="11" rx="2.5" fill="#1e1e2e"/>
  <rect x="39" y="76" width="11" height="11" rx="2.5" fill="#1e1e2e"/>
  <rect x="39" y="90" width="11" height="11" rx="2.5" fill="#1e1e2e"/>
  <rect x="39" y="104" width="11" height="11" rx="2.5" fill="#1e1e2e"/>
  <rect x="39" y="118" width="11" height="11" rx="2.5" fill="#1e1e2e"/>
  <rect x="39" y="132" width="11" height="11" rx="2.5" fill="#1e1e2e"/>
  <rect x="53" y="48" width="11" height="11" rx="2.5" fill="#1e1e2e"/>
  <rect x="53" y="62" width="11" height="11" rx="2.5" fill="#1e1e2e"/>
  <rect x="53" y="76" width="11" height="11" rx="2.5" fill="#1e1e2e"/>
  <rect x="53" y="90" width="11" height="11" rx="2.5" fill="#1e1e2e"/>
  <rect x="53" y="104" width="11" height="11" rx="2.5" fill="#1e1e2e"/>
  <rect x="53" y="118" width="11" height="11" rx="2.5" fill="#1e1e2e"/>
  <rect x="53" y="132" width="11" height="11" rx="2.5" fill="#1e1e2e"/>
  <rect x="67" y="48" width="11" height="11" rx="2.5" fill="#1e1e2e"/>
  <rect x="67" y="62" width="11" height="11" rx="2.5" fill="#1e1e2e"/>
  <rect x="67" y="76" width="11" height="11" rx="2.5" fill="#1e1e2e"/>
  <rect x="67" y="90" width="11" height="11" rx="2.5" fill="#1e1e2e"/>
  <rect x="67" y="104" width="11" height="11" rx="2.5" fill="#1e1e2e"/>
  <rect x="67" y="118" width="11" height="11" rx="2.5" fill="#1e1e2e"/>
  <rect x="67" y="132" width="11" height="11" rx="2.5" fill="#1e1e2e"/>
  <rect x="81" y="48" width="11" height="11" rx="2.5" fill="#1e1e2e"/>
  <rect x="81" y="62" width="11" height="11" rx="2.5" fill="#1e1e2e"/>
  <rect x="81" y="76" width="11" height="11" rx="2.5" fill="#1e1e2e"/>
  <rect x="81" y="90" width="11" height="11" rx="2.5" fill="#1e1e2e"/>
  <rect x="81" y="104" width="11" height="11" rx="2.5" fill="#1e1e2e"/>
  <rect x="81" y="118" width="11" height="11" rx="2.5" fill="#1e1e2e"/>
  <rect x="81" y="132" width="11" height="11" rx="2.5" fill="#1e1e2e"/>
  <rect x="95" y="48" width="11" height="11" rx="2.5" fill="#1e1e2e"/>
  <rect x="95" y="62" width="11" height="11" rx="2.5" fill="#1e1e2e"/>
  <rect x="95" y="76" width="11" height="11" rx="2.5" fill="#1e1e2e"/>
  <rect x="95" y="90" width="11" height="11" rx="2.5" fill="#1e1e2e"/>
  <rect x="95" y="104" width="11" height="11" rx="2.5" fill="#1e1e2e"/>
  <rect x="95" y="118" width="11" height="11" rx="2.5" fill="#1e1e2e"/>
  <rect x="95" y="132" width="11" height="11" rx="2.5" fill="#1e1e2e"/>
  <rect x="109" y="48" width="11" height="11" rx="2.5" fill="#1e1e2e"/>
  <rect x="109" y="62" width="11" height="11" rx="2.5" fill="#1e1e2e"/>
  <rect x="109" y="76" width="11" height="11" rx="2.5" fill="#1e1e2e"/>
  <rect x="109" y="90" width="11" height="11" rx="2.5" fill="#1e1e2e"/>
  <rect x="109" y="104" width="11" height="11" rx="2.5" fill="#1e1e2e"/>
  <rect x="109" y="118" width="11" height="11" rx="2.5" fill="#1e1e2e"/>
  <rect x="109" y="132" width="11" height="11" rx="2.5" fill="#1e1e2e"/>
  <rect x="123" y="48" width="11" height="11" rx="2.5" fill="#1e1e2e"/>
  <rect x="123" y="62" width="11" height="11" rx="2.5" fill="#1e1e2e"/>
  <rect x="123" y="76" width="11" height="11" rx="2.5" fill="#1e1e2e"/>
  <rect x="123" y="90" width="11" height="11" rx="2.5" fill="#1e1e2e"/>
  <rect x="123" y="104" width="11" height="11" rx="2.5" fill="#1e1e2e"/>
  <rect x="123" y="118" width="11" height="11" rx="2.5" fill="#1e1e2e"/>
  <rect x="123" y="132" width="11" height="11" rx="2.5" fill="#1e1e2e"/>
  <rect x="137" y="48" width="11" height="11" rx="2.5" fill="#1e1e2e"/>
  <rect x="137" y="62" width="11" height="11" rx="2.5" fill="#1e1e2e"/>
  <rect x="137" y="76" width="11" height="11" rx="2.5" fill="#1e1e2e"/>
  <rect x="137" y="90" width="11" height="11" rx="2.5" fill="#1e1e2e"/>
  <rect x="137" y="104" width="11" height="11" rx="2.5" fill="#1e1e2e"/>
  <rect x="137" y="118" width="11" height="11" rx="2.5" fill="#1e1e2e"/>
  <rect x="137" y="132" width="11" height="11" rx="2.5" fill="#1e1e2e"/>
  <rect x="151" y="48" width="11" height="11" rx="2.5" fill="#1e1e2e"/>
  <rect x="151" y="62" width="11" height="11" rx="2.5" fill="#1e1e2e"/>
  <rect x="151" y="76" width="11" height="11" rx="2.5" fill="#1e1e2e"/>
  <rect x="151" y="90" width="11" height="11" rx="2.5" fill="#1e1e2e"/>
  <rect x="151" y="104" width="11" height="11" rx="2.5" fill="#1e1e2e"/>
  <rect x="151" y="118" width="11" height="11" rx="2.5" fill="#1e1e2e"/>
  <rect x="151" y="132" width="11" height="11" rx="2.5" fill="#1e1e2e"/>
  <rect x="165" y="48" width="11" height="11" rx="2.5" fill="#1e1e2e"/>
  <rect x="165" y="62" width="11" height="11" rx="2.5" fill="#1e1e2e"/>
  <rect x="165" y="76" width="11" height="11" rx="2.5" fill="#1e1e2e"/>
  <rect x="165" y="90" width="11" height="11" rx="2.5" fill="#1e1e2e"/>
  <rect x="165" y="104" width="11" height="11" rx="2.5" fill="#1e1e2e"/>
  <rect x="165" y="118" width="11" height="11" rx="2.5" fill="#1e1e2e"/>
  <rect x="165" y="132" width="11" height="11" rx="2.5" fill="#1e1e2e"/>
  <rect x="179" y="48" width="11" height="11" rx="2.5" fill="#1e1e2e"/>
  <rect x="179" y="62" width="11" height="11" rx="2.5" fill="#1e1e2e"/>
  <rect x="179" y="76" width="11" height="11" rx="2.5" fill="#1e1e2e"/>
  <rect x="179" y="90" width="11" height="11" rx="2.5" fill="#1e1e2e"/>
  <rect x="179" y="104" width="11" height="11" rx="2.5" fill="#1e1e2e"/>
  <rect x="179" y="118" width="11" height="11" rx="2.5" fill="#1e1e2e"/>
  <rect x="179" y="132" width="11" height="11" rx="2.5" fill="#1e1e2e"/>
  <rect x="193" y="48" width="11" height="11" rx="2.5" fill="#1e1e2e"/>
  <rect x="193" y="62" width="11" height="11" rx="2.5" fill="#1e1e2e"/>
  <rect x="193" y="76" width="11" height="11" rx="2.5" fill="#1e1e2e"/>
  <rect x="193" y="90" width="11" height="11" rx="2.5" fill="#1e1e2e"/>
  <rect x="193" y="104" width="11" height="11" rx="2.5" fill="#1e1e2e"/>
  <rect x="193" y="118" width="11" height="11" rx="2.5" fill="#1e1e2e"/>
  <rect x="193" y="132" width="11" height="11" rx="2.5" fill="#1e1e2e"/>
  <rect x="207" y="48" width="11" height="11" rx="2.5" fill="#1e1e2e"/>
  <rect x="207" y="62" width="11" height="11" rx="2.5" fill="#1e1e2e"/>
  <rect x="207" y="76" width="11" height="11" rx="2.5" fill="#1e1e2e"/>
  <rect x="207" y="90" width="11" height="11" rx="2.5" fill="#1e1e2e"/>
  <rect x="207" y="104" width="11" height="11" rx="2.5" fill="#1e1e2e"/>
  <rect x="207" y="118" width="11" height="11" rx="2.5" fill="#1e1e2e"/>
  <rect x="207" y="132" width="11" height="11" rx="2.5" fill="#1e1e2e"/>
  <rect x="221" y="48" width="11" height="11" rx="2.5" fill="#1e1e2e"/>
  <rect x="221" y="62" width="11" height="11" rx="2.5" fill="#1e1e2e"/>
  <rect x="221" y="76" width="11" height="11" rx="2.5" fill="#1e1e2e"/>
  <rect x="221" y="90" width="11" height="11" rx="2.5" fill="#1e1e2e"/>
  <rect x="221" y="104" width="11" height="11" rx="2.5" fill="#1e1e2e"/>
  <rect x="221" y="118" width="11" height="11" rx="2.5" fill="#1e1e2e"/>
  <rect x="221" y="132" width="11" height="11" rx="2.5" fill="#1e1e2e"/>
  <rect x="235" y="48" width="11" height="11" rx="2.5" fill="#1e1e2e"/>
  <rect x="235" y="62" width="11" height="11" rx="2.5" fill="#1e1e2e"/>
  <rect x="235" y="76" width="11" height="11" rx="2.5" fill="#1e1e2e"/>
  <rect x="235" y="90" width="11" height="11" rx="2.5" fill="#1e1e2e"/>
  <rect x="235" y="104" width="11" height="11" rx="2.5" fill="#1e1e2e"/>
  <rect x="235" y="118" width="11" height="11" rx="2.5" fill="#1e1e2e"/>
  <rect x="235" y="132" width="11" height="11" rx="2.5" fill="#1e1e2e"/>
  <rect x="249" y="48" width="11" height="11" rx="2.5" fill="#1e1e2e"/>
  <rect x="249" y="62" width="11" height="11" rx="2.5" fill="#1e1e2e"/>
  <rect x="249" y="76" width="11" height="11" rx="2.5" fill="#1e1e2e"/>
  <rect x="249" y="90" width="11" height="11" rx="2.5" fill="#1e1e2e"/>
  <rect x="249" y="104" width="11" height="11" rx="2.5" fill="#1e1e2e"/>
  <rect x="249" y="118" width="11" height="11" rx="2.5" fill="#1e1e2e"/>
  <rect x="249" y="132" width="11" height="11" rx="2.5" fill="#1e1e2e"/>
  <rect x="263" y="48" width="11" height="11" rx="2.5" fill="#1e1e2e"/>
  <rect x="263" y="62" width="11" height="11" rx="2.5" fill="#1e1e2e"/>
  <rect x="263" y="76" width="11" height="11" rx="2.5" fill="#1e1e2e"/>
  <rect x="263" y="90" width="11" height="11" rx="2.5" fill="#1e1e2e"/>
  <rect x="263" y="104" width="11" height="11" rx="2.5" fill="#1e1e2e"/>
  <rect x="263" y="118" width="11" height="11" rx="2.5" fill="#1e1e2e"/>
  <rect x="263" y="132" width="11" height="11" rx="2.5" fill="#1e1e2e"/>
  <rect x="277" y="48" width="11" height="11" rx="2.5" fill="#1e1e2e"/>
  <rect x="277" y="62" width="11" height="11" rx="2.5" fill="#1e1e2e"/>
  <rect x="277" y="76" width="11" height="11" rx="2.5" fill="#1e1e2e"/>
  <rect x="277" y="90" width="11" height="11" rx="2.5" fill="#1e1e2e"/>
  <rect x="277" y="104" width="11" height="11" rx="2.5" fill="#1e1e2e"/>
  <rect x="277" y="118" width="11" height="11" rx="2.5" fill="#1e1e2e"/>
  <rect x="277" y="132" width="11" height="11" rx="2.5" fill="#1e1e2e"/>
  <rect x="291" y="48" width="11" height="11" rx="2.5" fill="#1e1e2e"/>
  <rect x="291" y="62" width="11" height="11" rx="2.5" fill="#1e1e2e"/>
  <rect x="291" y="76" width="11" height="11" rx="2.5" fill="#1e1e2e"/>
  <rect x="291" y="90" width="11" height="11" rx="2.5" fill="#1e1e2e"/>
  <rect x="291" y="104" width="11" height="11" rx="2.5" fill="#1e1e2e"/>
  <rect x="291" y="118" width="11" height="11" rx="2.5" fill="#1e1e2e"/>
  <rect x="291" y="132" width="11" height="11" rx="2.5" fill="#1e1e2e"/>
  <rect x="305" y="48" width="11" height="11" rx="2.5" fill="#1e1e2e"/>
  <rect x="305" y="62" width="11" height="11" rx="2.5" fill="#1e1e2e"/>
  <rect x="305" y="76" width="11" height="11" rx="2.5" fill="#1e1e2e"/>
  <rect x="305" y="90" width="11" height="11" rx="2.5" fill="#1e1e2e"/>
  <rect x="305" y="104" width="11" height="11" rx="2.5" fill="#1e1e2e"/>
  <rect x="305" y="118" width="11" height="11" rx="2.5" fill="#1e1e2e"/>
  <rect x="305" y="132" width="11" height="11" rx="2.5" fill="#1e1e2e"/>
  <rect x="319" y="48" width="11" height="11" rx="2.5" fill="#1e1e2e"/>
  <rect x="319" y="62" width="11" height="11" rx="2.5" fill="#1e1e2e"/>
  <rect x="319" y="76" width="11" height="11" rx="2.5" fill="#1e1e2e"/>
  <rect x="319" y="90" width="11" height="11" rx="2.5" fill="#1e1e2e"/>
  <rect x="319" y="104" width="11" height="11" rx="2.5" fill="#1e1e2e"/>
  <rect x="319" y="118" width="11" height="11" rx="2.5" fill="#1e1e2e"/>
  <rect x="319" y="132" width="11" height="11" rx="2.5" fill="#1e1e2e"/>
  <rect x="333" y="48" width="11" height="11" rx="2.5" fill="#1e1e2e"/>
  <rect x="333" y="62" width="11" height="11" rx="2.5" fill="#1e1e2e"/>
  <rect x="333" y="76" width="11" height="11" rx="2.5" fill="#1e1e2e"/>
  <rect x="333" y="90" width="11" height="11" rx="2.5" fill="#1e1e2e"/>
  <rect x="333" y="104" width="11" height="11" rx="2.5" fill="#1e1e2e"/>
  <rect x="333" y="118" width="11" height="11" rx="2.5" fill="#1e1e2e"/>
  <rect x="333" y="132" width="11" height="11" rx="2.5" fill="#1e1e2e"/>
  <rect x="347" y="48" width="11" height="11" rx="2.5" fill="#1e1e2e"/>
  <rect x="347" y="62" width="11" height="11" rx="2.5" fill="#1e1e2e"/>
  <rect x="347" y="76" width="11" height="11" rx="2.5" fill="#1e1e2e"/>
  <rect x="347" y="90" width="11" height="11" rx="2.5" fill="#1e1e2e"/>
  <rect x="347" y="104" width="11" height="11" rx="2.5" fill="#1e1e2e"/>
  <rect x="347" y="118" width="11" height="11" rx="2.5" fill="#1e1e2e"/>
  <rect x="347" y="132" width="11" height="11" rx="2.5" fill="#1e1e2e"/>
  <rect x="361" y="48" width="11" height="11" rx="2.5" fill="#1e1e2e"/>
  <rect x="361" y="62" width="11" height="11" rx="2.5" fill="#1e1e2e"/>
  <rect x="361" y="76" width="11" height="11" rx="2.5" fill="#1e1e2e"/>
  <rect x="361" y="90" width="11" height="11" rx="2.5" fill="#1e1e2e"/>
  <rect x="361" y="104" width="11" height="11" rx="2.5" fill="#1e1e2e"/>
  <rect x="361" y="118" width="11" height="11" rx="2.5" fill="#1e1e2e"/>
  <rect x="361" y="132" width="11" height="11" rx="2.5" fill="#1e1e2e"/>
  <rect x="375" y="48" width="11" height="11" rx="2.5" fill="#1e1e2e"/>
  <rect x="375" y="62" width="11" height="11" rx="2.5" fill="#1e1e2e"/>
  <rect x="375" y="76" width="11" height="11" rx="2.5" fill="#1e1e2e"/>
  <rect x="375" y="90" width="11" height="11" rx="2.5" fill="#1e1e2e"/>
  <rect x="375" y="104" width="11" height="11" rx="2.5" fill="#1e1e2e"/>
  <rect x="375" y="118" width="11" height="11" rx="2.5" fill="#1e1e2e"/>
  <rect x="375" y="132" width="11" height="11" rx="2.5" fill="#1e1e2e"/>
  <rect x="389" y="48" width="11" height="11" rx="2.5" fill="#1e1e2e"/>
  <rect x="389" y="62" width="11" height="11" rx="2.5" fill="#1e1e2e"/>
  <rect x="389" y="76" width="11" height="11" rx="2.5" fill="#1e1e2e"/>
  <rect x="389" y="90" width="11" height="11" rx="2.5" fill="#1e1e2e"/>
  <rect x="389" y="104" width="11" height="11" rx="2.5" fill="#1e1e2e"/>
  <rect x="389" y="118" width="11" height="11" rx="2.5" fill="#1e1e2e"/>
  <rect x="389" y="132" width="11" height="11" rx="2.5" fill="#1e1e2e"/>
  <rect x="403" y="48" width="11" height="11" rx="2.5" fill="#1e1e2e"/>
  <rect x="403" y="62" width="11" height="11" rx="2.5" fill="#1e1e2e"/>
  <rect x="403" y="76" width="11" height="11" rx="2.5" fill="#1e1e2e"/>
  <rect x="403" y="90" width="11" height="11" rx="2.5" fill="#1e1e2e"/>
  <rect x="403" y="104" width="11" height="11" rx="2.5" fill="#1e1e2e"/>
  <rect x="403" y="118" width="11" height="11" rx="2.5" fill="#1e1e2e"/>
  <rect x="403" y="132" width="11" height="11" rx="2.5" fill="#1e1e2e"/>
  <rect x="417" y="48" width="11" height="11" rx="2.5" fill="#1e1e2e"/>
  <rect x="417" y="62" width="11" height="11" rx="2.5" fill="#1e1e2e"/>
  <rect x="417" y="76" width="11" height="11" rx="2.5" fill="#1e1e2e"/>
  <rect x="417" y="90" width="11" height="11" rx="2.5" fill="#1e1e2e"/>
  <rect x="417" y="104" width="11" height="11" rx="2.5" fill="#1e1e2e"/>
  <rect x="417" y="118" width="11" height="11" rx="2.5" fill="#1e1e2e"/>
  <rect x="417" y="132" width="11" height="11" rx="2.5" fill="#1e1e2e"/>
  <rect x="431" y="48" width="11" height="11" rx="2.5" fill="#1e1e2e"/>
  <rect x="431" y="62" width="11" height="11" rx="2.5" fill="#1e1e2e"/>
  <rect x="431" y="76" width="11" height="11" rx="2.5" fill="#1e1e2e"/>
  <rect x="431" y="90" width="11" height="11" rx="2.5" fill="#1e1e2e"/>
  <rect x="431" y="104" width="11" height="11" rx="2.5" fill="#1e1e2e"/>
  <rect x="431" y="118" width="11" height="11" rx="2.5" fill="#1e1e2e"/>
  <rect x="431" y="132" width="11" height="11" rx="2.5" fill="#123f31"/>
  <rect x="445" y="48" width="11" height="11" rx="2.5" fill="#1e1e2e"/>
  <rect x="445" y="62" width="11" height="11" rx="2.5" fill="#123f31"/>
  <rect x="445" y="76" width="11" height="11" rx="2.5" fill="#166b4b"/>
  <rect x="445" y="90" width="11" height="11" rx="2.5" fill="#123f31"/>
  <rect x="445" y="104" width="11" height="11" rx="2.5" fill="#123f31"/>
  <rect x="445" y="118" width="11" height="11" rx="2.5" fill="#1e1e2e"/>
  <rect x="445" y="132" width="11" height="11" rx="2.5" fill="#1e1e2e"/>
  <rect x="459" y="48" width="11" height="11" rx="2.5" fill="#1e1e2e"/>
  <rect x="459" y="62" width="11" height="11" rx="2.5" fill="#1e1e2e"/>
  <rect x="459" y="76" width="11" height="11" rx="2.5" fill="#1e1e2e"/>
  <rect x="459" y="90" width="11" height="11" rx="2.5" fill="#1e1e2e"/>
  <rect x="459" y="104" width="11" height="11" rx="2.5" fill="#1e1e2e"/>
  <rect x="459" y="118" width="11" height="11" rx="2.5" fill="#1e1e2e"/>
  <rect x="459" y="132" width="11" height="11" rx="2.5" fill="#1e1e2e"/>
  <rect x="473" y="48" width="11" height="11" rx="2.5" fill="#1e1e2e"/>
  <rect x="473" y="62" width="11" height="11" rx="2.5" fill="#1e1e2e"/>
  <rect x="473" y="76" width="11" height="11" rx="2.5" fill="#1e1e2e"/>
  <rect x="473" y="90" width="11" height="11" rx="2.5" fill="#1e1e2e"/>
  <rect x="473" y="104" width="11" height="11" rx="2.5" fill="#1e1e2e"/>
  <rect x="473" y="118" width="11" height="11" rx="2.5" fill="#1e1e2e"/>
  <rect x="473" y="132" width="11" height="11" rx="2.5" fill="#1e1e2e"/>
  <rect x="487" y="48" width="11" height="11" rx="2.5" fill="#1e1e2e"/>
  <rect x="487" y="62" width="11" height="11" rx="2.5" fill="#1e1e2e"/>
  <rect x="487" y="76" width="11" height="11" rx="2.5" fill="#1e1e2e"/>
  <rect x="487" y="90" width="11" height="11" rx="2.5" fill="#1e1e2e"/>
  <rect x="487" y="104" width="11" height="11" rx="2.5" fill="#1e1e2e"/>
  <rect x="487" y="118" width="11" height="11" rx="2.5" fill="#1e1e2e"/>
  <rect x="487" y="132" width="11" height="11" rx="2.5" fill="#1e1e2e"/>
  <rect x="501" y="48" width="11" height="11" rx="2.5" fill="#1e1e2e"/>
  <rect x="501" y="62" width="11" height="11" rx="2.5" fill="#1e1e2e"/>
  <rect x="501" y="76" width="11" height="11" rx="2.5" fill="#1fa06f"/>
  <rect x="501" y="90" width="11" height="11" rx="2.5" fill="#1e1e2e"/>
  <rect x="501" y="104" width="11" height="11" rx="2.5" fill="#166b4b"/>
  <rect x="501" y="118" width="11" height="11" rx="2.5" fill="#123f31"/>
  <rect x="501" y="132" width="11" height="11" rx="2.5" fill="#00ff9c"/>
  <rect x="515" y="48" width="11" height="11" rx="2.5" fill="#1fa06f"/>
  <rect x="515" y="62" width="11" height="11" rx="2.5" fill="#123f31"/>
  <rect x="515" y="76" width="11" height="11" rx="2.5" fill="#1fa06f"/>
  <rect x="515" y="90" width="11" height="11" rx="2.5" fill="#166b4b"/>
  <rect x="515" y="104" width="11" height="11" rx="2.5" fill="#00ff9c"/>
  <rect x="515" y="118" width="11" height="11" rx="2.5" fill="#00ff9c"/>
  <rect x="515" y="132" width="11" height="11" rx="2.5" fill="#00ff9c"/>
  <rect x="529" y="48" width="11" height="11" rx="2.5" fill="#1e1e2e"/>
  <rect x="529" y="62" width="11" height="11" rx="2.5" fill="#00ff9c"/>
  <rect x="529" y="76" width="11" height="11" rx="2.5" fill="#00ff9c"/>
  <rect x="529" y="90" width="11" height="11" rx="2.5" fill="#00ff9c"/>
  <rect x="529" y="104" width="11" height="11" rx="2.5" fill="#1fa06f"/>
  <rect x="529" y="118" width="11" height="11" rx="2.5" fill="#166b4b"/>
  <rect x="529" y="132" width="11" height="11" rx="2.5" fill="#1e1e2e"/>
  <rect x="543" y="48" width="11" height="11" rx="2.5" fill="#1e1e2e"/>
  <rect x="543" y="62" width="11" height="11" rx="2.5" fill="#1e1e2e"/>
  <rect x="543" y="76" width="11" height="11" rx="2.5" fill="#1e1e2e"/>
  <rect x="543" y="90" width="11" height="11" rx="2.5" fill="#1e1e2e"/>
  <rect x="543" y="104" width="11" height="11" rx="2.5" fill="#1e1e2e"/>
  <rect x="543" y="118" width="11" height="11" rx="2.5" fill="#1e1e2e"/>
  <rect x="543" y="132" width="11" height="11" rx="2.5" fill="#1e1e2e"/>
  <rect x="557" y="48" width="11" height="11" rx="2.5" fill="#1e1e2e"/>
  <rect x="557" y="62" width="11" height="11" rx="2.5" fill="#123f31"/>
  <rect x="557" y="76" width="11" height="11" rx="2.5" fill="#123f31"/>
  <rect x="557" y="90" width="11" height="11" rx="2.5" fill="#123f31"/>
  <rect x="557" y="104" width="11" height="11" rx="2.5" fill="#123f31"/>
  <rect x="557" y="118" width="11" height="11" rx="2.5" fill="#00ff9c"/>
  <rect x="557" y="132" width="11" height="11" rx="2.5" fill="#00ff9c"/>
  <rect x="571" y="48" width="11" height="11" rx="2.5" fill="#00ff9c"/>
  <rect x="571" y="62" width="11" height="11" rx="2.5" fill="#00ff9c"/>
  <rect x="571" y="76" width="11" height="11" rx="2.5" fill="#00ff9c"/>
  <rect x="571" y="90" width="11" height="11" rx="2.5" fill="#1e1e2e"/>
  <rect x="571" y="104" width="11" height="11" rx="2.5" fill="#166b4b"/>
  <rect x="571" y="118" width="11" height="11" rx="2.5" fill="#1fa06f"/>
  <rect x="571" y="132" width="11" height="11" rx="2.5" fill="#00ff9c"/>
  <rect x="585" y="48" width="11" height="11" rx="2.5" fill="#00ff9c"/>
  <rect x="585" y="62" width="11" height="11" rx="2.5" fill="#1fa06f"/>
  <rect x="585" y="76" width="11" height="11" rx="2.5" fill="#00ff9c"/>
  <rect x="585" y="90" width="11" height="11" rx="2.5" fill="#00ff9c"/>
  <rect x="585" y="104" width="11" height="11" rx="2.5" fill="#00ff9c"/>
  <rect x="585" y="118" width="11" height="11" rx="2.5" fill="#00ff9c"/>
  <rect x="585" y="132" width="11" height="11" rx="2.5" fill="#00ff9c"/>
  <rect x="599" y="48" width="11" height="11" rx="2.5" fill="#00ff9c"/>
  <rect x="599" y="62" width="11" height="11" rx="2.5" fill="#00ff9c"/>
  <rect x="599" y="76" width="11" height="11" rx="2.5" fill="#00ff9c"/>
  <rect x="599" y="90" width="11" height="11" rx="2.5" fill="#00ff9c"/>
  <rect x="599" y="104" width="11" height="11" rx="2.5" fill="#00ff9c"/>
  <rect x="599" y="118" width="11" height="11" rx="2.5" fill="#00ff9c"/>
  <rect x="599" y="132" width="11" height="11" rx="2.5" fill="#00ff9c"/>
  <rect x="613" y="48" width="11" height="11" rx="2.5" fill="#00ff9c"/>
  <rect x="613" y="62" width="11" height="11" rx="2.5" fill="#00ff9c"/>
  <rect x="613" y="76" width="11" height="11" rx="2.5" fill="#00ff9c"/>
  <rect x="613" y="90" width="11" height="11" rx="2.5" fill="#00ff9c"/>
  <rect x="613" y="104" width="11" height="11" rx="2.5" fill="#00ff9c"/>
  <rect x="613" y="118" width="11" height="11" rx="2.5" fill="#166b4b"/>
  <rect x="613" y="132" width="11" height="11" rx="2.5" fill="#00ff9c"/>
  <rect x="627" y="48" width="11" height="11" rx="2.5" fill="#123f31"/>
  <rect x="627" y="62" width="11" height="11" rx="2.5" fill="#1e1e2e"/>
  <rect x="627" y="76" width="11" height="11" rx="2.5" fill="#1e1e2e"/>
  <rect x="627" y="90" width="11" height="11" rx="2.5" fill="#1fa06f"/>
  <rect x="627" y="104" width="11" height="11" rx="2.5" fill="#00ff9c"/>
  <rect x="627" y="118" width="11" height="11" rx="2.5" fill="#1fa06f"/>
  <rect x="627" y="132" width="11" height="11" rx="2.5" fill="#00ff9c"/>
  <rect x="641" y="48" width="11" height="11" rx="2.5" fill="#00ff9c"/>
  <rect x="641" y="62" width="11" height="11" rx="2.5" fill="#00ff9c"/>
  <rect x="641" y="76" width="11" height="11" rx="2.5" fill="#00ff9c"/>
  <rect x="641" y="90" width="11" height="11" rx="2.5" fill="#1fa06f"/>
  <rect x="641" y="104" width="11" height="11" rx="2.5" fill="#00ff9c"/>
  <rect x="641" y="118" width="11" height="11" rx="2.5" fill="#166b4b"/>
  <rect x="641" y="132" width="11" height="11" rx="2.5" fill="#00ff9c"/>
  <rect x="655" y="48" width="11" height="11" rx="2.5" fill="#00ff9c"/>
  <rect x="655" y="62" width="11" height="11" rx="2.5" fill="#00ff9c"/>
  <rect x="655" y="76" width="11" height="11" rx="2.5" fill="#1fa06f"/>
  <rect x="655" y="90" width="11" height="11" rx="2.5" fill="#166b4b"/>
  <rect x="655" y="104" width="11" height="11" rx="2.5" fill="#00ff9c"/>
  <rect x="655" y="118" width="11" height="11" rx="2.5" fill="#00ff9c"/>
  <rect x="655" y="132" width="11" height="11" rx="2.5" fill="#00ff9c"/>
  <rect x="669" y="48" width="11" height="11" rx="2.5" fill="#123f31"/>
  <rect x="669" y="62" width="11" height="11" rx="2.5" fill="#123f31"/>
  <rect x="669" y="76" width="11" height="11" rx="2.5" fill="#1e1e2e"/>
  <rect x="669" y="90" width="11" height="11" rx="2.5" fill="#1e1e2e"/>
  <rect x="669" y="104" width="11" height="11" rx="2.5" fill="#1e1e2e"/>
  <rect x="669" y="118" width="11" height="11" rx="2.5" fill="#1e1e2e"/>
  <rect x="669" y="132" width="11" height="11" rx="2.5" fill="#1e1e2e"/>
  <rect x="683" y="48" width="11" height="11" rx="2.5" fill="#1e1e2e"/>
  <rect x="683" y="62" width="11" height="11" rx="2.5" fill="#1e1e2e"/>
  <rect x="683" y="76" width="11" height="11" rx="2.5" fill="#1e1e2e"/>
  <rect x="683" y="90" width="11" height="11" rx="2.5" fill="#1e1e2e"/>
  <rect x="683" y="104" width="11" height="11" rx="2.5" fill="#1e1e2e"/>
  <rect x="683" y="118" width="11" height="11" rx="2.5" fill="#1e1e2e"/>
  <rect x="683" y="132" width="11" height="11" rx="2.5" fill="#1e1e2e"/>
  <rect x="697" y="48" width="11" height="11" rx="2.5" fill="#1e1e2e"/>
  <rect x="697" y="62" width="11" height="11" rx="2.5" fill="#1e1e2e"/>
  <rect x="697" y="76" width="11" height="11" rx="2.5" fill="#1e1e2e"/>
  <rect x="697" y="90" width="11" height="11" rx="2.5" fill="#1e1e2e"/>
  <rect x="697" y="104" width="11" height="11" rx="2.5" fill="#1e1e2e"/>
  <rect x="697" y="118" width="11" height="11" rx="2.5" fill="#1e1e2e"/>
  <rect x="697" y="132" width="11" height="11" rx="2.5" fill="#1e1e2e"/>
  <rect x="711" y="48" width="11" height="11" rx="2.5" fill="#1e1e2e"/>
  <rect x="711" y="62" width="11" height="11" rx="2.5" fill="#1e1e2e"/>
  <rect x="711" y="76" width="11" height="11" rx="2.5" fill="#1e1e2e"/>
  <rect x="711" y="90" width="11" height="11" rx="2.5" fill="#1e1e2e"/>
  <rect x="711" y="104" width="11" height="11" rx="2.5" fill="#1e1e2e"/>
  <rect x="711" y="118" width="11" height="11" rx="2.5" fill="#1e1e2e"/>
  <rect x="711" y="132" width="11" height="11" rx="2.5" fill="#1e1e2e"/>
  <rect x="725" y="48" width="11" height="11" rx="2.5" fill="#1e1e2e"/>
  <rect x="725" y="62" width="11" height="11" rx="2.5" fill="#166b4b"/>
  <rect x="725" y="76" width="11" height="11" rx="2.5" fill="#1e1e2e"/>
  <rect x="725" y="90" width="11" height="11" rx="2.5" fill="#1e1e2e"/>
  <rect x="725" y="104" width="11" height="11" rx="2.5" fill="#00ff9c"/>
  <rect x="725" y="118" width="11" height="11" rx="2.5" fill="#1e1e2e"/>
  <rect x="725" y="132" width="11" height="11" rx="2.5" fill="#1e1e2e"/>
  <rect x="739" y="48" width="11" height="11" rx="2.5" fill="#1e1e2e"/>
  <rect x="739" y="62" width="11" height="11" rx="2.5" fill="#1e1e2e"/>
  <rect x="739" y="76" width="11" height="11" rx="2.5" fill="#1e1e2e"/>
  <rect x="739" y="90" width="11" height="11" rx="2.5" fill="#1e1e2e"/>
  <rect x="739" y="104" width="11" height="11" rx="2.5" fill="#1e1e2e"/>
  <rect x="739" y="118" width="11" height="11" rx="2.5" fill="#1e1e2e"/>
  <rect x="739" y="132" width="11" height="11" rx="2.5" fill="#1e1e2e"/>
  <text x="693" y="167" font-family="'Segoe UI',Ubuntu,sans-serif" font-size="10" fill="#a6adc8">Less</text>
  <rect x="723" y="158" width="10" height="10" rx="2" fill="#1e1e2e"/>
  <rect x="737" y="158" width="10" height="10" rx="2" fill="#123f31"/>
  <rect x="751" y="158" width="10" height="10" rx="2" fill="#166b4b"/>
  <rect x="765" y="158" width="10" height="10" rx="2" fill="#1fa06f"/>
  <rect x="779" y="158" width="10" height="10" rx="2" fill="#00ff9c"/>
  <text x="793" y="167" font-family="'Segoe UI',Ubuntu,sans-serif" font-size="10" fill="#a6adc8">More</text>
</svg>